<svg xmlns="http://www.w3.org/2000/svg" viewBox="0 0 48 48">
  <path fill="#EA4335" d="M24 9.5c3.14 0 5.95 1.08 8.17 2.85l6.1-6.1C34.36 3.04 29.47 1 24 1 14.82 1 7.01 6.48 3.58 14.17l7.1 5.52C12.36 13.64 17.73 9.5 24 9.5z"/>
  <path fill="#4285F4" d="M46.5 24.5c0-1.64-.15-3.22-.42-4.75H24v9.01h12.64c-.55 2.96-2.2 5.47-4.68 7.15l7.19 5.59C43.18 37.77 46.5 31.6 46.5 24.5z"/>
  <path fill="#FBBC05" d="M10.68 28.31A14.55 14.55 0 0 1 9.5 24c0-1.49.26-2.93.68-4.31l-7.1-5.52A23.93 23.93 0 0 0 0 24c0 3.87.92 7.53 2.56 10.76l8.12-6.45z"/>
  <path fill="#34A853" d="M24 47c5.47 0 10.06-1.81 13.41-4.91l-7.19-5.59c-1.88 1.26-4.29 2-6.22 2-6.27 0-11.64-4.14-13.32-9.69l-8.12 6.45C7.01 41.52 14.82 47 24 47z"/>
</svg>
